STARTFONT 2.1
FONT -ibm-courier-medium-r-normal--24-240-100-100-m-146-iso8859-2
SIZE 24 100 100
FONTBOUNDINGBOX 25 32 -2 -5
COMMENT $Header: courR24.bdf,v 1.1 96/01/22 23:46:59 peterlin Exp $
COMMENT 
COMMENT Copyright International Business Machines,Corp. 1991
COMMENT IBM Courier is a Trademark of the IBM Corporation.
COMMENT 
COMMENT Automatic rendering from Adobe Type 1 outline:
COMMENT Primoz Peterlin <primoz.peterlin@biofiz.mf.uni-lj.si>
COMMENT cour.pfa rendered at 24.000000 points
COMMENT Checksum eb69a063
STARTPROPERTIES 3
FONT_ASCENT 26
FONT_DESCENT 5
DEFAULT_CHAR 32
ENDPROPERTIES
CHARS 191
STARTCHAR space
ENCODING 32
SWIDTH 597 0
DWIDTH 20 0
BBX 0 0 0 1
BITMAP
ENDCHAR
STARTCHAR exclam
ENCODING 33
SWIDTH 597 0
DWIDTH 20 0
BBX 5 19 7 1
BITMAP
70
70
70
70
70
30
30
30
30
30
20
20
00
00
00
70
78
78
70
ENDCHAR
STARTCHAR quotedbl
ENCODING 34
SWIDTH 597 0
DWIDTH 20 0
BBX 10 9 5 11
BITMAP
e1c0
e1c0
e1c0
e1c0
e1c0
e1c0
e1c0
e1c0
e1c0
ENDCHAR
STARTCHAR numbersign
ENCODING 35
SWIDTH 597 0
DWIDTH 20 0
BBX 14 24 3 -1
BITMAP
1830
1830
1830
1830
1830
1830
1830
1830
fffc
fffc
1860
1860
1860
1860
1860
fffc
fffc
3060
3060
3060
3060
3060
3060
3060
ENDCHAR
STARTCHAR dollar
ENCODING 36
SWIDTH 597 0
DWIDTH 20 0
BBX 13 26 3 -3
BITMAP
0300
0300
0300
0300
0fd8
3ff8
7338
6318
6318
6318
7310
3f00
1f80
03e0
0330
0318
c318
c318
e318
f370
fff0
cfc0
0300
0300
0300
0300
ENDCHAR
STARTCHAR percent
ENCODING 37
SWIDTH 597 0
DWIDTH 20 0
BBX 17 20 1 1
BITMAP
1e0000
7f8000
e1c000
c0c000
c0c000
c0c000
718200
3f9f00
1efe00
07f800
3fc000
3f3c00
387f00
20e300
01c180
018180
018180
01c380
00ff00
003e00
ENDCHAR
STARTCHAR ampersand
ENCODING 38
SWIDTH 597 0
DWIDTH 20 0
BBX 15 18 3 1
BITMAP
0f80
1fe0
3860
3000
3000
3800
1800
0c00
1e1c
371c
6310
c1b0
c1f0
c0e0
c060
70f0
7fbe
1e1e
ENDCHAR
STARTCHAR quoteright
ENCODING 39
SWIDTH 597 0
DWIDTH 20 0
BBX 6 8 6 12
BITMAP
3c
38
38
70
70
60
e0
e0
ENDCHAR
STARTCHAR parenleft
ENCODING 40
SWIDTH 597 0
DWIDTH 20 0
BBX 6 25 9 -2
BITMAP
0c
0c
18
18
30
30
60
60
60
c0
c0
c0
c0
c0
c0
c0
60
60
60
30
30
10
18
08
0c
ENDCHAR
STARTCHAR parenright
ENCODING 41
SWIDTH 597 0
DWIDTH 20 0
BBX 5 25 5 -2
BITMAP
c0
c0
60
60
60
30
30
30
18
18
18
18
18
18
18
18
18
30
30
30
60
60
60
c0
c0
ENDCHAR
STARTCHAR asterisk
ENCODING 42
SWIDTH 597 0
DWIDTH 20 0
BBX 12 12 4 8
BITMAP
0600
0600
0600
4610
f6f0
7ff0
0f00
0f00
1d80
39c0
30e0
1040
ENDCHAR
STARTCHAR plus
ENCODING 43
SWIDTH 597 0
DWIDTH 20 0
BBX 16 16 2 3
BITMAP
0180
0180
0180
0180
0180
0180
0180
ffff
ffff
0180
0180
0180
0180
0180
0180
0180
ENDCHAR
STARTCHAR comma
ENCODING 44
SWIDTH 597 0
DWIDTH 20 0
BBX 6 8 6 -3
BITMAP
3c
38
38
70
70
60
e0
e0
ENDCHAR
STARTCHAR minus
ENCODING 45
SWIDTH 597 0
DWIDTH 20 0
BBX 15 2 2 10
BITMAP
fffe
fffe
ENDCHAR
STARTCHAR period
ENCODING 46
SWIDTH 597 0
DWIDTH 20 0
BBX 5 4 7 1
BITMAP
70
f8
f8
f8
ENDCHAR
STARTCHAR slash
ENCODING 47
SWIDTH 597 0
DWIDTH 20 0
BBX 14 28 3 -4
BITMAP
0008
000c
0018
0018
0030
0030
0020
0060
0060
00c0
00c0
0180
0180
0300
0300
0600
0600
0c00
0c00
1800
1800
1000
3000
3000
6000
6000
c000
4000
ENDCHAR
STARTCHAR zero
ENCODING 48
SWIDTH 597 0
DWIDTH 20 0
BBX 12 20 4 1
BITMAP
1f00
3fc0
70c0
6060
6060
c030
c030
c030
c030
c030
c030
c030
c030
c030
c030
6060
6060
70c0
3fc0
0f00
ENDCHAR
STARTCHAR one
ENCODING 49
SWIDTH 597 0
DWIDTH 20 0
BBX 14 20 3 1
BITMAP
0700
1f00
f300
4300
0300
0300
0300
0300
0300
0300
0300
0300
0300
0300
0300
0300
0300
0300
7ffc
7ffc
ENDCHAR
STARTCHAR two
ENCODING 50
SWIDTH 597 0
DWIDTH 20 0
BBX 13 20 3 1
BITMAP
1f80
7fe0
e070
c038
c018
0018
0018
0018
0030
0070
00e0
01c0
0380
0700
0e00
1c18
3018
6018
fff8
fff8
ENDCHAR
STARTCHAR three
ENCODING 51
SWIDTH 597 0
DWIDTH 20 0
BBX 13 20 3 1
BITMAP
1f80
ffc0
4060
0030
0030
0030
0060
0080
07c0
07e0
00f0
0030
0018
0018
0018
0018
0038
8070
ffe0
3f80
ENDCHAR
STARTCHAR four
ENCODING 52
SWIDTH 597 0
DWIDTH 20 0
BBX 14 20 2 1
BITMAP
00e0
00e0
01e0
0360
0360
0660
0c60
0c60
1860
3060
3060
6060
c060
fffc
fffc
0060
0060
0060
07fc
07fc
ENDCHAR
STARTCHAR five
ENCODING 53
SWIDTH 597 0
DWIDTH 20 0
BBX 13 20 3 1
BITMAP
7ff0
7ff0
6000
6000
6000
6000
6000
6f80
7fe0
7070
0030
0018
0018
0018
0018
0018
0030
4070
7fe0
1f80
ENDCHAR
STARTCHAR six
ENCODING 54
SWIDTH 597 0
DWIDTH 20 0
BBX 13 20 3 1
BITMAP
01f8
07f8
0c00
1800
3000
6000
6000
4000
c780
dfe0
f070
e030
c018
c018
c018
6018
6038
3870
1fe0
0f80
ENDCHAR
STARTCHAR seven
ENCODING 55
SWIDTH 597 0
DWIDTH 20 0
BBX 13 20 3 1
BITMAP
fff8
fff8
c018
c030
c030
0030
0060
0060
0060
00c0
00c0
01c0
0180
0180
0380
0300
0300
0700
0600
0200
ENDCHAR
STARTCHAR eight
ENCODING 56
SWIDTH 597 0
DWIDTH 20 0
BBX 13 20 3 1
BITMAP
0fc0
1fe0
3030
6018
6018
6018
6018
3030
3860
1fc0
1fe0
3070
6038
c018
c018
c018
e018
7070
3fe0
0fc0
ENDCHAR
STARTCHAR nine
ENCODING 57
SWIDTH 597 0
DWIDTH 20 0
BBX 12 20 3 1
BITMAP
1f00
3fc0
70e0
e060
c020
c030
c030
c030
6070
70f0
3ff0
1f30
0030
0060
0060
00e0
00c0
0380
ff00
fc00
ENDCHAR
STARTCHAR colon
ENCODING 58
SWIDTH 597 0
DWIDTH 20 0
BBX 5 13 7 1
BITMAP
70
f8
f8
f8
00
00
00
00
00
70
f8
f8
f8
ENDCHAR
STARTCHAR semicolon
ENCODING 59
SWIDTH 597 0
DWIDTH 20 0
BBX 6 17 6 -3
BITMAP
38
7c
7c
7c
00
00
00
00
00
38
38
70
70
60
60
c0
c0
ENDCHAR
STARTCHAR less
ENCODING 60
SWIDTH 597 0
DWIDTH 20 0
BBX 16 15 2 4
BITMAP
0002
0007
001e
0078
01e0
0700
1c00
7000
7800
0e00
03c0
00f0
003e
000f
0003
ENDCHAR
STARTCHAR equal
ENCODING 61
SWIDTH 597 0
DWIDTH 20 0
BBX 16 8 2 7
BITMAP
ffff
ffff
0000
0000
0000
0000
ffff
ffff
ENDCHAR
STARTCHAR greater
ENCODING 62
SWIDTH 597 0
DWIDTH 20 0
BBX 16 14 2 4
BITMAP
e000
7800
1e00
0780
01e0
0038
000e
003e
01f8
0fc0
7f00
fc00
f000
4000
ENDCHAR
STARTCHAR question
ENCODING 63
SWIDTH 597 0
DWIDTH 20 0
BBX 12 19 4 1
BITMAP
3f00
ffc0
c0e0
c070
c030
0030
0030
0070
00e0
03c0
0f00
0c00
0c00
0000
0000
1c00
1e00
1e00
1c00
ENDCHAR
STARTCHAR at
ENCODING 64
SWIDTH 597 0
DWIDTH 20 0
BBX 18 18 1 1
BITMAP
03f000
0ffe00
1c0f00
300380
60f980
61f8c0
c338c0
c638c0
c630c0
cc30c0
cc30c0
cc7180
eef380
67df00
711e00
3c0300
1fff00
07f800
ENDCHAR
STARTCHAR A
ENCODING 65
SWIDTH 597 0
DWIDTH 20 0
BBX 20 19 0 1
BITMAP
1fe000
1fe000
00f000
01b000
019800
019800
030c00
030c00
060600
060600
040200
0fff00
0fff00
180180
180180
3000c0
3000c0
fe07f0
fe07f0
ENDCHAR
STARTCHAR B
ENCODING 66
SWIDTH 597 0
DWIDTH 20 0
BBX 17 19 1 1
BITMAP
fff800
fffe00
180e00
180700
180300
180300
180300
180e00
1ffc00
1ffe00
180f00
180300
180180
180180
180180
180180
180300
fffe00
fffc00
ENDCHAR
STARTCHAR C
ENCODING 67
SWIDTH 597 0
DWIDTH 20 0
BBX 18 19 2 1
BITMAP
03f200
0ffb00
1c0f00
300700
700300
600300
c00200
c00000
c00000
c00000
c00000
c00000
c00000
600000
600000
300180
1c0780
0ffe00
03f800
ENDCHAR
STARTCHAR D
ENCODING 68
SWIDTH 597 0
DWIDTH 20 0
BBX 17 19 1 1
BITMAP
fff000
fffc00
180e00
180700
180300
180380
180180
180180
180180
180180
180180
180180
180180
180300
180300
180700
180e00
fffc00
fff000
ENDCHAR
STARTCHAR E
ENCODING 69
SWIDTH 597 0
DWIDTH 20 0
BBX 16 19 2 1
BITMAP
ffff
ffff
1803
1803
1803
1803
1860
1860
1fe0
1fe0
1860
1860
1800
1803
1803
1803
1803
ffff
ffff
ENDCHAR
STARTCHAR F
ENCODING 70
SWIDTH 597 0
DWIDTH 20 0
BBX 16 19 2 1
BITMAP
ffff
ffff
1803
1803
1803
1803
1830
1830
1ff0
1ff0
1830
1830
1800
1800
1800
1800
1800
ff80
ff80
ENDCHAR
STARTCHAR G
ENCODING 71
SWIDTH 597 0
DWIDTH 20 0
BBX 18 19 1 1
BITMAP
03f200
0fff00
1e0f00
380700
700300
600300
600200
c00000
c00000
c00000
c00000
c03fc0
c03fc0
600180
700180
380180
1c0180
0fff80
03fc00
ENDCHAR
STARTCHAR H
ENCODING 72
SWIDTH 597 0
DWIDTH 20 0
BBX 18 19 1 1
BITMAP
fe1fc0
fe1fc0
180600
180600
180600
180600
180600
180600
1ffe00
1ffe00
180600
180600
180600
180600
180600
180600
180600
fe1fc0
fe1fc0
ENDCHAR
STARTCHAR I
ENCODING 73
SWIDTH 597 0
DWIDTH 20 0
BBX 13 19 3 1
BITMAP
fff8
fff8
0300
0300
0300
0300
0300
0300
0300
0300
0300
0300
0300
0300
0300
0300
0300
fff8
fff8
ENDCHAR
STARTCHAR J
ENCODING 74
SWIDTH 597 0
DWIDTH 20 0
BBX 17 19 2 1
BITMAP
07ff80
07ff80
001800
001800
001800
001800
001800
001800
001800
001800
c01800
c01800
c01800
c01800
c01800
c01800
e03000
fff000
1fe000
ENDCHAR
STARTCHAR K
ENCODING 75
SWIDTH 597 0
DWIDTH 20 0
BBX 17 19 2 1
BITMAP
fe3f00
fe3f00
180c00
181800
183000
186000
18c000
198000
1b0000
1f8000
1dc000
1c6000
183000
183000
181800
180800
180c00
fe0780
fe0780
ENDCHAR
STARTCHAR L
ENCODING 76
SWIDTH 597 0
DWIDTH 20 0
BBX 16 19 2 1
BITMAP
ff80
ff80
1800
1800
1800
1800
1800
1800
1800
1800
1800
1803
1803
1803
1803
1803
1803
ffff
ffff
ENDCHAR
STARTCHAR M
ENCODING 77
SWIDTH 597 0
DWIDTH 20 0
BBX 20 19 0 1
BITMAP
fc03f0
fc03f0
3606c0
3606c0
3604c0
330cc0
3308c0
3118c0
3198c0
3190c0
30b0c0
30f0c0
30e0c0
3060c0
3000c0
3000c0
3000c0
fe07f0
fe07f0
ENDCHAR
STARTCHAR N
ENCODING 78
SWIDTH 597 0
DWIDTH 20 0
BBX 19 19 1 1
BITMAP
fc1fe0
fc1fe0
360180
360180
330180
330180
318180
318180
30c180
30c180
306180
302180
303180
301180
301980
300980
300d80
ff0780
ff0780
ENDCHAR
STARTCHAR O
ENCODING 79
SWIDTH 597 0
DWIDTH 20 0
BBX 17 19 1 1
BITMAP
03f000
0ffc00
1c1e00
380600
700300
600300
e00180
c00180
c00180
c00180
c00180
c00180
c00180
600300
700300
380600
1c1e00
0ffc00
03f000
ENDCHAR
STARTCHAR P
ENCODING 80
SWIDTH 597 0
DWIDTH 20 0
BBX 16 19 2 1
BITMAP
fff0
fffc
180e
1806
1803
1803
1803
1803
1806
180e
1ffc
1ff0
1800
1800
1800
1800
1800
ffc0
ffc0
ENDCHAR
STARTCHAR Q
ENCODING 81
SWIDTH 597 0
DWIDTH 20 0
BBX 17 23 1 -3
BITMAP
03f000
0ffc00
1c1e00
380600
700300
600300
e00180
c00180
c00180
c00180
c00180
c00180
c00180
600380
700300
380700
1c1e00
0ffc00
07f000
030000
07c000
0fff00
0c1f00
ENDCHAR
STARTCHAR R
ENCODING 82
SWIDTH 597 0
DWIDTH 20 0
BBX 18 19 1 1
BITMAP
fff800
fffc00
180e00
180600
180300
180300
180300
180600
180e00
1ff800
1fc000
186000
183000
181800
180c00
180e00
180600
ff07c0
ff03c0
ENDCHAR
STARTCHAR S
ENCODING 83
SWIDTH 597 0
DWIDTH 20 0
BBX 14 19 3 1
BITMAP
0f88
3fec
703c
601c
c00c
c00c
c008
e000
7800
1fc0
03f0
0018
000c
c00c
c00c
c00c
e038
dff0
4fc0
ENDCHAR
STARTCHAR T
ENCODING 84
SWIDTH 597 0
DWIDTH 20 0
BBX 16 19 2 1
BITMAP
ffff
ffff
c183
c183
8183
8183
8183
8183
0180
0180
0180
0180
0180
0180
0180
0180
0180
1ff8
1ff8
ENDCHAR
STARTCHAR U
ENCODING 85
SWIDTH 597 0
DWIDTH 20 0
BBX 18 19 1 1
BITMAP
fe1fc0
fe1fc0
300300
300300
300300
300300
300300
300300
300300
300300
300300
300300
300300
300300
300300
300700
180600
0ffc00
07f800
ENDCHAR
STARTCHAR V
ENCODING 86
SWIDTH 597 0
DWIDTH 20 0
BBX 20 19 0 1
BITMAP
fe07f0
fe07f0
3000c0
180080
180180
080100
0c0300
0c0300
060200
060600
020400
030c00
030c00
019800
019800
009000
00f000
00f000
006000
ENDCHAR
STARTCHAR W
ENCODING 87
SWIDTH 597 0
DWIDTH 20 0
BBX 20 19 0 1
BITMAP
fc03f0
fc03f0
200040
200040
206040
206040
20f0c0
20f0c0
3090c0
1198c0
111880
110c80
130c80
120480
120680
140680
0c0380
0c0380
080180
ENDCHAR
STARTCHAR X
ENCODING 88
SWIDTH 597 0
DWIDTH 20 0
BBX 18 19 1 1
BITMAP
7e1f80
7e1f80
180600
0c0c00
040800
061800
033000
01e000
01c000
00c000
01e000
033000
063800
041800
0c0c00
180600
300700
fe1fc0
fe1fc0
ENDCHAR
STARTCHAR Y
ENCODING 89
SWIDTH 597 0
DWIDTH 20 0
BBX 18 19 1 1
BITMAP
fc0fc0
fc0fc0
300300
180200
080400
0c0c00
061800
061800
033000
016000
01e000
00c000
00c000
00c000
00c000
00c000
00c000
0ffc00
0ffc00
ENDCHAR
STARTCHAR Z
ENCODING 90
SWIDTH 597 0
DWIDTH 20 0
BBX 14 19 3 1
BITMAP
fff8
fff8
c018
c030
c060
c0c0
c0c0
0180
0300
0600
0600
0c00
180c
300c
300c
600c
c00c
fffc
fffc
ENDCHAR
STARTCHAR bracketleft
ENCODING 91
SWIDTH 597 0
DWIDTH 20 0
BBX 6 25 10 -2
BITMAP
fc
fc
c0
c0
c0
c0
c0
c0
c0
c0
c0
c0
c0
c0
c0
c0
c0
c0
c0
c0
c0
c0
c0
fc
fc
ENDCHAR
STARTCHAR backslash
ENCODING 92
SWIDTH 597 0
DWIDTH 20 0
BBX 14 28 3 -4
BITMAP
c000
c000
6000
6000
2000
3000
1000
1800
0800
0c00
0c00
0600
0600
0300
0300
0180
0180
0080
00c0
0040
0060
0060
0030
0030
0018
0018
000c
000c
ENDCHAR
STARTCHAR bracketright
ENCODING 93
SWIDTH 597 0
DWIDTH 20 0
BBX 6 25 4 -2
BITMAP
fc
fc
0c
0c
0c
0c
0c
0c
0c
0c
0c
0c
0c
0c
0c
0c
0c
0c
0c
0c
0c
0c
0c
fc
fc
ENDCHAR
STARTCHAR asciicircum
ENCODING 94
SWIDTH 597 0
DWIDTH 20 0
BBX 15 15 2 5
BITMAP
0380
0380
06c0
06c0
0c60
0c60
1c60
1830
3830
3018
7018
701c
600c
e00c
4006
ENDCHAR
STARTCHAR underscore
ENCODING 95
SWIDTH 597 0
DWIDTH 20 0
BBX 23 2 -2 -3
BITMAP
fffffe
fffffe
ENDCHAR
STARTCHAR quoteleft
ENCODING 96
SWIDTH 597 0
DWIDTH 20 0
BBX 6 8 6 12
BITMAP
1c
1c
18
38
38
70
70
f0
ENDCHAR
STARTCHAR a
ENCODING 97
SWIDTH 597 0
DWIDTH 20 0
BBX 16 14 2 1
BITMAP
0fe0
7ff0
0018
0018
0018
0ff8
3ff8
7018
c018
c018
c038
e0f8
7fdf
1f1f
ENDCHAR
STARTCHAR b
ENCODING 98
SWIDTH 597 0
DWIDTH 20 0
BBX 18 20 0 1
BITMAP
f80000
380000
180000
180000
180000
180000
18f800
1bfe00
1f0700
1c0180
1c01c0
1800c0
1800c0
1800c0
1800c0
1c01c0
1c0180
1f0700
7bfe00
78f800
ENDCHAR
STARTCHAR c
ENCODING 99
SWIDTH 597 0
DWIDTH 20 0
BBX 16 14 2 1
BITMAP
07f4
1ffe
380e
6006
e006
c000
c000
c000
c000
6000
7003
380f
1ffc
07f0
ENDCHAR
STARTCHAR d
ENCODING 100
SWIDTH 597 0
DWIDTH 20 0
BBX 17 20 2 1
BITMAP
000600
018600
000600
000600
000600
000600
0fc600
1ff600
383e00
601e00
e00e00
c00e00
c00600
c00600
c00e00
e00e00
601e00
383e00
1ff780
0fc780
ENDCHAR
STARTCHAR e
ENCODING 101
SWIDTH 597 0
DWIDTH 20 0
BBX 16 14 2 1
BITMAP
07f0
1ff8
381e
7006
6007
c003
ffff
ffff
c000
e000
6000
7807
1fff
07f8
ENDCHAR
STARTCHAR f
ENCODING 102
SWIDTH 597 0
DWIDTH 20 0
BBX 14 20 3 1
BITMAP
07e0
0ff8
1c00
1800
1800
1800
fff0
fff0
1800
1800
1800
1800
1800
1800
1800
1800
1800
1800
fff0
fff0
ENDCHAR
STARTCHAR g
ENCODING 103
SWIDTH 597 0
DWIDTH 20 0
BBX 17 19 1 -4
BITMAP
07e780
1ff780
383e00
600e00
e00e00
c00600
c00600
c00600
c00600
600e00
701e00
383e00
1ff600
07c600
000600
000600
000c00
07f800
07e000
ENDCHAR
STARTCHAR h
ENCODING 104
SWIDTH 597 0
DWIDTH 20 0
BBX 18 20 1 1
BITMAP
f80000
380000
180000
180000
180000
180000
19f800
1ffc00
1e0e00
180600
180600
180600
180600
180600
180600
180600
180600
180600
fe1fc0
fe1fc0
ENDCHAR
STARTCHAR i
ENCODING 105
SWIDTH 597 0
DWIDTH 20 0
BBX 13 22 3 1
BITMAP
0300
0300
0300
0300
0000
0000
0000
0000
7f00
7f00
0300
0300
0300
0300
0300
0300
0300
0300
0300
0300
fff8
fff8
ENDCHAR
STARTCHAR j
ENCODING 106
SWIDTH 597 0
DWIDTH 20 0
BBX 11 27 2 -4
BITMAP
00c0
00c0
00c0
00c0
0000
0000
0000
0000
7fe0
7fe0
0060
0060
0060
0060
0060
0060
0060
0060
0060
0060
0060
0060
0060
00e0
01c0
ff80
3f00
ENDCHAR
STARTCHAR k
ENCODING 107
SWIDTH 597 0
DWIDTH 20 0
BBX 18 20 1 1
BITMAP
f80000
380000
180000
180000
180000
180000
187f00
187f00
187800
18e000
19c000
1f0000
1f8000
1cc000
187000
183800
181c00
180e00
781fc0
781fc0
ENDCHAR
STARTCHAR l
ENCODING 108
SWIDTH 597 0
DWIDTH 20 0
BBX 13 20 3 1
BITMAP
7f00
7f00
0300
0300
0300
0300
0300
0300
0300
0300
0300
0300
0300
0300
0300
0300
0300
0300
fff8
fff8
ENDCHAR
STARTCHAR m
ENCODING 109
SWIDTH 597 0
DWIDTH 20 0
BBX 20 14 0 1
BITMAP
f78f00
ffff80
38f0c0
3060c0
3060c0
3060c0
3060c0
3060c0
3060c0
3060c0
3060c0
3060c0
fc78f0
fc78f0
ENDCHAR
STARTCHAR n
ENCODING 110
SWIDTH 597 0
DWIDTH 20 0
BBX 18 14 1 1
BITMAP
f9f800
fffc00
1e0e00
180600
180600
180600
180600
180600
180600
180600
180600
180600
fe1fc0
fe1fc0
ENDCHAR
STARTCHAR o
ENCODING 111
SWIDTH 597 0
DWIDTH 20 0
BBX 16 14 2 1
BITMAP
0fe0
3ff8
781c
6006
c003
c003
c003
c003
c003
e007
6006
381c
1ff8
07e0
ENDCHAR
STARTCHAR p
ENCODING 112
SWIDTH 597 0
DWIDTH 20 0
BBX 17 19 1 -4
BITMAP
f3f800
f7fc00
3e0e00
380300
300180
300180
300180
300180
300180
380300
3c0300
3e0e00
37fc00
31f000
300000
300000
300000
ff8000
ff8000
ENDCHAR
STARTCHAR q
ENCODING 113
SWIDTH 597 0
DWIDTH 20 0
BBX 17 19 2 -4
BITMAP
0fc780
3ff780
703e00
600e00
c00600
c00600
c00600
c00600
c00600
600e00
601e00
383e00
1ff600
0fc600
000600
000600
000600
00ff80
00ff80
ENDCHAR
STARTCHAR r
ENCODING 114
SWIDTH 597 0
DWIDTH 20 0
BBX 17 14 2 1
BITMAP
7c3f00
7cff00
0fc000
0f0000
0e0000
0c0000
0c0000
0c0000
0c0000
0c0000
0c0000
0c0000
fff000
fff000
ENDCHAR
STARTCHAR s
ENCODING 115
SWIDTH 597 0
DWIDTH 20 0
BBX 14 14 3 1
BITMAP
1f90
7ff8
e038
c018
c000
7000
3fe0
0ff8
c01c
e00c
e00c
f01c
dff8
c7e0
ENDCHAR
STARTCHAR t
ENCODING 116
SWIDTH 597 0
DWIDTH 20 0
BBX 15 19 3 1
BITMAP
1800
1800
1800
1800
1800
fff0
fff0
1800
1800
1800
1800
1800
1800
1800
1800
1800
1c04
0ffe
03f0
ENDCHAR
STARTCHAR u
ENCODING 117
SWIDTH 597 0
DWIDTH 20 0
BBX 17 14 1 1
BITMAP
f83e00
f83e00
180600
180600
180600
180600
180600
180600
180600
180600
180e00
1c1e00
0fff80
07e780
ENDCHAR
STARTCHAR v
ENCODING 118
SWIDTH 597 0
DWIDTH 20 0
BBX 18 14 1 1
BITMAP
fe1fc0
fe1fc0
180600
180600
0c0c00
0c0c00
060800
061800
021000
033000
032000
01e000
01c000
00c000
ENDCHAR
STARTCHAR w
ENCODING 119
SWIDTH 597 0
DWIDTH 20 0
BBX 20 14 0 1
BITMAP
fc03f0
fc03f0
306060
3060c0
3060c0
10f0c0
18f180
189180
199980
0d1900
0f0b00
0f0e00
060e00
060600
ENDCHAR
STARTCHAR x
ENCODING 120
SWIDTH 597 0
DWIDTH 20 0
BBX 18 14 1 1
BITMAP
7e1f80
7e1f80
0c0c00
061800
033000
01e000
00c000
01e000
033000
061800
080c00
100e00
fc1fc0
fc1fc0
ENDCHAR
STARTCHAR y
ENCODING 121
SWIDTH 597 0
DWIDTH 20 0
BBX 18 19 1 -4
BITMAP
fc0fc0
fc0fc0
300300
180600
180600
0c0c00
0c0800
061800
061000
033000
016000
01e000
00c000
008000
018000
010000
030000
7fc000
7fc000
ENDCHAR
STARTCHAR z
ENCODING 122
SWIDTH 597 0
DWIDTH 20 0
BBX 14 14 3 1
BITMAP
7ffc
7ffc
6038
6070
00e0
01c0
0380
0700
0e00
180c
300c
600c
fffc
fffc
ENDCHAR
STARTCHAR braceleft
ENCODING 123
SWIDTH 597 0
DWIDTH 20 0
BBX 7 25 8 -2
BITMAP
06
1e
18
30
30
30
30
30
30
30
30
70
e0
e0
70
30
30
30
30
30
30
30
30
1e
0e
ENDCHAR
STARTCHAR bar
ENCODING 124
SWIDTH 597 0
DWIDTH 20 0
BBX 2 28 9 -5
BITMAP
c0
c0
c0
c0
c0
c0
c0
c0
c0
c0
c0
c0
c0
c0
c0
c0
c0
c0
c0
c0
c0
c0
c0
c0
c0
c0
c0
c0
ENDCHAR
STARTCHAR braceright
ENCODING 125
SWIDTH 597 0
DWIDTH 20 0
BBX 7 25 5 -2
BITMAP
e0
f0
38
18
18
18
18
18
30
30
30
18
0e
1e
38
30
30
30
18
18
18
18
18
f0
e0
ENDCHAR
STARTCHAR asciitilde
ENCODING 126
SWIDTH 597 0
DWIDTH 20 0
BBX 14 5 3 9
BITMAP
0004
3e0c
7ff8
c1f0
8000
ENDCHAR
STARTCHAR space
ENCODING 160
SWIDTH 597 0
DWIDTH 20 0
BBX 0 0 0 1
BITMAP
ENDCHAR
STARTCHAR Aogonek
ENCODING 161
SWIDTH 597 0
DWIDTH 20 0
BBX 20 23 0 -3
BITMAP
0fe000
1fe000
00f000
00b000
019800
019800
030c00
030c00
020600
060600
040600
0fff00
0fff00
180180
180180
3000c0
3000c0
fe07f0
fe07f0
000180
000320
0003c0
000180
ENDCHAR
STARTCHAR breve
ENCODING 162
SWIDTH 597 0
DWIDTH 20 0
BBX 11 4 4 17
BITMAP
c040
7fe0
1fc0
0100
ENDCHAR
STARTCHAR Lslash
ENCODING 163
SWIDTH 597 0
DWIDTH 20 0
BBX 16 19 2 1
BITMAP
ff80
ff80
1800
1800
1800
1830
18e0
19c0
1f00
7c00
f800
f803
1803
1803
1803
1803
1803
ffff
ffff
ENDCHAR
STARTCHAR currency
ENCODING 164
SWIDTH 597 0
DWIDTH 20 0
BBX 15 15 2 3
BITMAP
4002
6006
33cc
1ff8
1c38
381c
300c
300c
300c
300c
1818
1c38
3ffc
63ce
4002
ENDCHAR
STARTCHAR Lcaron
ENCODING 165
SWIDTH 597 0
DWIDTH 20 0
BBX 16 20 2 1
BITMAP
000c
ff98
ffb0
1860
1800
1800
1800
1800
1800
1800
1800
1800
1803
1803
1803
1803
1803
1803
ffff
ffff
ENDCHAR
STARTCHAR Sacute
ENCODING 166
SWIDTH 597 0
DWIDTH 20 0
BBX 14 25 3 1
BITMAP
0180
0300
0600
0c00
0000
0000
0f88
3fec
703c
601c
c00c
c00c
c008
e000
7800
1fc0
03f0
0018
000c
c00c
c00c
c00c
e038
dff0
4fc0
ENDCHAR
STARTCHAR section
ENCODING 167
SWIDTH 597 0
DWIDTH 20 0
BBX 12 22 4 -2
BITMAP
0ff0
1ff0
3830
3030
3030
3800
3c00
7e00
c300
c1c0
c0e0
6070
3830
1c30
0e30
03e0
0180
c0c0
c0c0
c0c0
ff80
ff00
ENDCHAR
STARTCHAR dieresis
ENCODING 168
SWIDTH 597 0
DWIDTH 20 0
BBX 6 4 7 17
BITMAP
cc
cc
cc
cc
ENDCHAR
STARTCHAR Scaron
ENCODING 169
SWIDTH 597 0
DWIDTH 20 0
BBX 14 26 3 1
BITMAP
1020
1860
0ec0
0780
0380
0000
0000
0f88
3fec
703c
601c
c00c
c00c
c008
e000
7800
1fc0
03f0
0018
000c
c00c
c00c
c00c
e038
dff0
4fc0
ENDCHAR
STARTCHAR Scedilla
ENCODING 170
SWIDTH 597 0
DWIDTH 20 0
BBX 14 24 3 -4
BITMAP
0f88
3fec
707c
601c
c01c
c00c
c008
e000
7800
1fe0
03f0
0018
000c
c00c
c00c
e00c
f038
dff0
4fc0
03c0
03c0
00c0
0fc0
0780
ENDCHAR
STARTCHAR Tcaron
ENCODING 171
SWIDTH 597 0
DWIDTH 20 0
BBX 16 26 2 1
BITMAP
0810
0c30
0760
03c0
01c0
0000
0000
ffff
ffff
c183
c183
8183
8183
8183
8183
0180
0180
0180
0180
0180
0180
0180
0180
0180
1ff8
1ff8
ENDCHAR
STARTCHAR Zacute
ENCODING 172
SWIDTH 597 0
DWIDTH 20 0
BBX 14 25 3 1
BITMAP
0180
0300
0600
0c00
0000
0000
fff8
fff8
c018
c030
c060
c0c0
c0c0
0180
0300
0600
0600
0c00
180c
300c
300c
600c
c00c
fffc
fffc
ENDCHAR
STARTCHAR hyphen
ENCODING 173
SWIDTH 597 0
DWIDTH 20 0
BBX 7 2 6 10
BITMAP
fe
fe
ENDCHAR
STARTCHAR Zcaron
ENCODING 174
SWIDTH 597 0
DWIDTH 20 0
BBX 14 26 3 1
BITMAP
1020
1860
0ec0
0780
0380
0000
0000
fff8
fff8
c018
c030
c060
c0c0
c0c0
0180
0300
0600
0600
0c00
180c
300c
300c
600c
c00c
fffc
fffc
ENDCHAR
STARTCHAR Zdotaccent
ENCODING 175
SWIDTH 597 0
DWIDTH 20 0
BBX 14 25 3 1
BITMAP
0300
0300
0300
0300
0000
0000
fff8
fff8
c018
c030
c060
c0c0
c0c0
0180
0300
0600
0600
0c00
180c
300c
300c
600c
c00c
fffc
fffc
ENDCHAR
STARTCHAR degree
ENCODING 176
SWIDTH 597 0
DWIDTH 20 0
BBX 10 10 5 11
BITMAP
1e00
7f80
e180
c0c0
c0c0
c0c0
e1c0
6380
3f00
1e00
ENDCHAR
STARTCHAR aogonek
ENCODING 177
SWIDTH 597 0
DWIDTH 20 0
BBX 16 18 2 -3
BITMAP
0fe0
7ff0
0018
0018
0018
0ff8
3ff8
7018
c018
c018
c038
e0f8
7fdf
1f1f
0018
0012
001e
001c
ENDCHAR
STARTCHAR ogonek
ENCODING 178
SWIDTH 597 0
DWIDTH 20 0
BBX 5 4 8 -3
BITMAP
60
c0
d0
60
ENDCHAR
STARTCHAR lslash
ENCODING 179
SWIDTH 597 0
DWIDTH 20 0
BBX 13 20 3 1
BITMAP
7f00
7f00
0300
0300
0300
0300
0318
0330
03e0
0780
7f00
7b00
6300
0300
0300
0300
0300
0300
fff8
fff8
ENDCHAR
STARTCHAR acute
ENCODING 180
SWIDTH 597 0
DWIDTH 20 0
BBX 6 4 7 17
BITMAP
18
30
60
c0
ENDCHAR
STARTCHAR lcaron
ENCODING 181
SWIDTH 597 0
DWIDTH 20 0
BBX 15 20 3 1
BITMAP
7f0c
7f18
0330
0360
0300
0300
0300
0300
0300
0300
0300
0300
0300
0300
0300
0300
0300
0300
fff8
fff8
ENDCHAR
STARTCHAR sacute
ENCODING 182
SWIDTH 597 0
DWIDTH 20 0
BBX 14 20 3 1
BITMAP
0180
0300
0600
0c00
0000
0000
1f90
7ff8
e038
c018
c000
7000
3fe0
0ff8
c01c
e00c
e00c
f01c
dff8
c7e0
ENDCHAR
STARTCHAR caron
ENCODING 183
SWIDTH 597 0
DWIDTH 20 0
BBX 8 3 6 18
BITMAP
e3
7e
1c
ENDCHAR
STARTCHAR cedilla
ENCODING 184
SWIDTH 597 0
DWIDTH 20 0
BBX 6 7 7 -4
BITMAP
30
38
38
3c
0c
fc
78
ENDCHAR
STARTCHAR scaron
ENCODING 185
SWIDTH 597 0
DWIDTH 20 0
BBX 14 20 3 1
BITMAP
1c60
0fc0
0380
0000
0000
0000
1f90
7ff8
e038
c018
c000
7000
3fe0
0ff8
c01c
e00c
e00c
f01c
dff8
c7e0
ENDCHAR
STARTCHAR scedilla
ENCODING 186
SWIDTH 597 0
DWIDTH 20 0
BBX 14 19 3 -4
BITMAP
1f90
7ff8
e038
c018
c000
7000
3fe0
0ff8
c01c
e00c
e00c
f01c
fff8
cff0
0380
03c0
00c0
0fc0
0780
ENDCHAR
STARTCHAR tcaron
ENCODING 187
SWIDTH 597 0
DWIDTH 20 0
BBX 15 20 3 1
BITMAP
0030
1860
18c0
1980
1800
1800
fff0
fff0
1800
1800
1800
1800
1800
1800
1800
1800
1800
1c04
0ffe
03f0
ENDCHAR
STARTCHAR zacute
ENCODING 188
SWIDTH 597 0
DWIDTH 20 0
BBX 14 20 3 1
BITMAP
0180
0300
0600
0c00
0000
0000
7ffc
7ffc
6038
6070
00e0
01c0
0380
0700
0e00
180c
300c
600c
fffc
fffc
ENDCHAR
STARTCHAR hungarumlaut
ENCODING 189
SWIDTH 597 0
DWIDTH 20 0
BBX 10 4 6 17
BITMAP
1980
3300
6600
cc00
ENDCHAR
STARTCHAR zcaron
ENCODING 190
SWIDTH 597 0
DWIDTH 20 0
BBX 14 20 3 1
BITMAP
1c60
0fc0
0380
0000
0000
0000
7ffc
7ffc
6038
6070
00e0
01c0
0380
0700
0e00
180c
300c
600c
fffc
fffc
ENDCHAR
STARTCHAR zdotaccent
ENCODING 191
SWIDTH 597 0
DWIDTH 20 0
BBX 14 20 3 1
BITMAP
0300
0300
0300
0300
0000
0000
7ffc
7ffc
6038
6070
00e0
01c0
0380
0700
0e00
180c
300c
600c
fffc
fffc
ENDCHAR
STARTCHAR Racute
ENCODING 192
SWIDTH 597 0
DWIDTH 20 0
BBX 18 25 1 1
BITMAP
006000
00c000
018000
030000
000000
000000
fff800
fffc00
180e00
180600
180300
180300
180300
180600
180e00
1ff800
1fc000
186000
183000
181800
180c00
180e00
180600
ff07c0
ff03c0
ENDCHAR
STARTCHAR Aacute
ENCODING 193
SWIDTH 597 0
DWIDTH 20 0
BBX 20 25 0 1
BITMAP
003000
006000
00c000
018000
000000
000000
1fe000
1fe000
00f000
01b000
019800
019800
030c00
030c00
060600
060600
040200
0fff00
0fff00
180180
180180
3000c0
3000c0
fe07f0
fe07f0
ENDCHAR
STARTCHAR Acircumflex
ENCODING 194
SWIDTH 597 0
DWIDTH 20 0
BBX 20 25 0 1
BITMAP
00e000
00f000
019800
030c00
000000
000000
1fe000
1fe000
00f000
01b000
019800
019800
030c00
030c00
060600
060600
040200
0fff00
0fff00
180180
180180
3000c0
3000c0
fe07f0
fe07f0
ENDCHAR
STARTCHAR Abreve
ENCODING 195
SWIDTH 597 0
DWIDTH 20 0
BBX 20 26 0 1
BITMAP
0c0400
0e0e00
071c00
03fc00
01f000
000000
000000
1fe000
1fe000
00f000
01b000
019800
019800
030c00
030c00
060600
060600
040200
0fff00
0fff00
180180
180180
3000c0
3000c0
fe07f0
fe07f0
ENDCHAR
STARTCHAR Adieresis
ENCODING 196
SWIDTH 597 0
DWIDTH 20 0
BBX 20 25 0 1
BITMAP
019800
019800
019800
019800
000000
000000
1fe000
1fe000
00f000
01b000
019800
019800
030c00
030c00
060600
060600
040200
0fff00
0fff00
180180
180180
3000c0
3000c0
fe07f0
fe07f0
ENDCHAR
STARTCHAR Lacute
ENCODING 197
SWIDTH 597 0
DWIDTH 20 0
BBX 16 25 2 1
BITMAP
0600
0c00
1800
3000
0000
0000
ff80
ff80
1800
1800
1800
1800
1800
1800
1800
1800
1800
1803
1803
1803
1803
1803
1803
ffff
ffff
ENDCHAR
STARTCHAR Cacute
ENCODING 198
SWIDTH 597 0
DWIDTH 20 0
BBX 18 25 2 1
BITMAP
006000
00c000
018000
030000
000000
000000
03f200
0ffb00
1c0f00
300700
700300
600300
c00200
c00000
c00000
c00000
c00000
c00000
c00000
600000
600000
300180
1c0780
0ffe00
03f800
ENDCHAR
STARTCHAR Ccedilla
ENCODING 199
SWIDTH 597 0
DWIDTH 20 0
BBX 18 24 2 -4
BITMAP
03f200
0fff00
1c1f00
300700
600700
600300
c00200
c00000
c00000
c00000
c00000
c00000
c00000
600000
700000
380180
1c0780
0ffe00
03f800
00e000
007000
003000
03f000
01e000
ENDCHAR
STARTCHAR Ccaron
ENCODING 200
SWIDTH 597 0
DWIDTH 20 0
BBX 18 26 2 1
BITMAP
040800
061800
03b000
01e000
00e000
000000
000000
03f200
0ffb00
1c0f00
300700
700300
600300
c00200
c00000
c00000
c00000
c00000
c00000
c00000
600000
600000
300180
1c0780
0ffe00
03f800
ENDCHAR
STARTCHAR Eacute
ENCODING 201
SWIDTH 597 0
DWIDTH 20 0
BBX 16 25 2 1
BITMAP
00c0
0180
0300
0600
0000
0000
ffff
ffff
1803
1803
1803
1803
1860
1860
1fe0
1fe0
1860
1860
1800
1803
1803
1803
1803
ffff
ffff
ENDCHAR
STARTCHAR Eogonek
ENCODING 202
SWIDTH 597 0
DWIDTH 20 0
BBX 16 23 2 -3
BITMAP
ffff
ffff
1803
1803
1803
1803
1860
1860
1fe0
1fe0
1860
1860
1800
1803
1803
1803
1803
ffff
ffff
0018
0032
003c
001c
ENDCHAR
STARTCHAR Edieresis
ENCODING 203
SWIDTH 597 0
DWIDTH 20 0
BBX 16 25 2 1
BITMAP
0660
0660
0660
0660
0000
0000
ffff
ffff
1803
1803
1803
1803
1860
1860
1fe0
1fe0
1860
1860
1800
1803
1803
1803
1803
ffff
ffff
ENDCHAR
STARTCHAR Ecaron
ENCODING 204
SWIDTH 597 0
DWIDTH 20 0
BBX 16 26 2 1
BITMAP
0810
0c30
0760
03c0
01c0
0000
0000
ffff
ffff
1803
1803
1803
1803
1860
1860
1fe0
1fe0
1860
1860
1800
1803
1803
1803
1803
ffff
ffff
ENDCHAR
STARTCHAR Iacute
ENCODING 205
SWIDTH 597 0
DWIDTH 20 0
BBX 13 25 3 1
BITMAP
0180
0300
0600
0c00
0000
0000
fff8
fff8
0300
0300
0300
0300
0300
0300
0300
0300
0300
0300
0300
0300
0300
0300
0300
fff8
fff8
ENDCHAR
STARTCHAR Icircumflex
ENCODING 206
SWIDTH 597 0
DWIDTH 20 0
BBX 13 25 3 1
BITMAP
0700
0780
0cc0
1860
0000
0000
fff8
fff8
0300
0300
0300
0300
0300
0300
0300
0300
0300
0300
0300
0300
0300
0300
0300
fff8
fff8
ENDCHAR
STARTCHAR Dcaron
ENCODING 207
SWIDTH 597 0
DWIDTH 20 0
BBX 17 26 1 1
BITMAP
040800
061800
03b000
01e000
00e000
000000
000000
fff000
fffc00
180e00
180700
180300
180380
180180
180180
180180
180180
180180
180180
180180
180300
180300
180700
180e00
fffc00
fff000
ENDCHAR
STARTCHAR Eth
ENCODING 208
SWIDTH 597 0
DWIDTH 20 0
BBX 17 19 1 1
BITMAP
fff000
fffc00
180e00
180700
180300
180380
180180
180180
ffc180
ffc180
180180
180180
180180
180100
180300
180700
180e00
fffc00
fff000
ENDCHAR
STARTCHAR Nacute
ENCODING 209
SWIDTH 597 0
DWIDTH 20 0
BBX 19 25 1 1
BITMAP
006000
00c000
018000
030000
000000
000000
fc1fe0
fc1fe0
360180
360180
330180
330180
318180
318180
30c180
30c180
306180
302180
303180
301180
301980
300980
300d80
ff0780
ff0780
ENDCHAR
STARTCHAR Ncaron
ENCODING 210
SWIDTH 597 0
DWIDTH 20 0
BBX 19 26 1 1
BITMAP
040800
061800
03b000
01e000
00e000
000000
000000
fc1fe0
fc1fe0
360180
360180
330180
330180
318180
318180
30c180
30c180
306180
302180
303180
301180
301980
300980
300d80
ff0780
ff0780
ENDCHAR
STARTCHAR Oacute
ENCODING 211
SWIDTH 597 0
DWIDTH 20 0
BBX 17 25 1 1
BITMAP
006000
00c000
018000
030000
000000
000000
03f000
0ffc00
1c1e00
380600
700300
600300
e00180
c00180
c00180
c00180
c00180
c00180
c00180
600300
700300
380600
1c1e00
0ffc00
03f000
ENDCHAR
STARTCHAR Ocircumflex
ENCODING 212
SWIDTH 597 0
DWIDTH 20 0
BBX 17 25 1 1
BITMAP
01c000
01e000
033000
061800
000000
000000
03f000
0ffc00
1c1e00
380600
700300
600300
e00180
c00180
c00180
c00180
c00180
c00180
c00180
600300
700300
380600
1c1e00
0ffc00
03f000
ENDCHAR
STARTCHAR Ohungarumlaut
ENCODING 213
SWIDTH 597 0
DWIDTH 20 0
BBX 17 25 1 1
BITMAP
00cc00
019800
033000
066000
000000
000000
03f000
0ffc00
1c1e00
380600
700300
600300
e00180
c00180
c00180
c00180
c00180
c00180
c00180
600300
700300
380600
1c1e00
0ffc00
03f000
ENDCHAR
STARTCHAR Odieresis
ENCODING 214
SWIDTH 597 0
DWIDTH 20 0
BBX 17 25 1 1
BITMAP
033000
033000
033000
033000
000000
000000
03f000
0ffc00
1c1e00
380600
700300
600300
e00180
c00180
c00180
c00180
c00180
c00180
c00180
600300
700300
380600
1c1e00
0ffc00
03f000
ENDCHAR
STARTCHAR multiply
ENCODING 215
SWIDTH 597 0
DWIDTH 20 0
BBX 12 12 4 5
BITMAP
4020
e060
70f0
39f0
1fc0
0f00
0f00
1f80
39c0
70e0
e070
4020
ENDCHAR
STARTCHAR Rcaron
ENCODING 216
SWIDTH 597 0
DWIDTH 20 0
BBX 18 26 1 1
BITMAP
040800
061800
03b000
01e000
00e000
000000
000000
fff800
fffc00
180e00
180600
180300
180300
180300
180600
180e00
1ff800
1fc000
186000
183000
181800
180c00
180e00
180600
ff07c0
ff03c0
ENDCHAR
STARTCHAR Uring
ENCODING 217
SWIDTH 597 0
DWIDTH 20 0
BBX 18 26 1 1
BITMAP
00c000
01e000
033000
033000
01e000
00c000
000000
fe1fc0
fe1fc0
300300
300300
300300
300300
300300
300300
300300
300300
300300
300300
300300
300300
300300
300700
180600
0ffc00
07f800
ENDCHAR
STARTCHAR Uacute
ENCODING 218
SWIDTH 597 0
DWIDTH 20 0
BBX 18 25 1 1
BITMAP
006000
00c000
018000
030000
000000
000000
fe1fc0
fe1fc0
300300
300300
300300
300300
300300
300300
300300
300300
300300
300300
300300
300300
300300
300700
180600
0ffc00
07f800
ENDCHAR
STARTCHAR Uhungarumlaut
ENCODING 219
SWIDTH 597 0
DWIDTH 20 0
BBX 18 25 1 1
BITMAP
00cc00
019800
033000
066000
000000
000000
fe1fc0
fe1fc0
300300
300300
300300
300300
300300
300300
300300
300300
300300
300300
300300
300300
300300
300700
180600
0ffc00
07f800
ENDCHAR
STARTCHAR Udieresis
ENCODING 220
SWIDTH 597 0
DWIDTH 20 0
BBX 18 25 1 1
BITMAP
033000
033000
033000
033000
000000
000000
fe1fc0
fe1fc0
300300
300300
300300
300300
300300
300300
300300
300300
300300
300300
300300
300300
300300
300700
180600
0ffc00
07f800
ENDCHAR
STARTCHAR Yacute
ENCODING 221
SWIDTH 597 0
DWIDTH 20 0
BBX 18 25 1 1
BITMAP
006000
00c000
018000
030000
000000
000000
fc0fc0
fc0fc0
300300
180200
080400
0c0c00
061800
061800
033000
016000
01e000
00c000
00c000
00c000
00c000
00c000
00c000
0ffc00
0ffc00
ENDCHAR
STARTCHAR Tcedilla
ENCODING 222
SWIDTH 597 0
DWIDTH 20 0
BBX 17 24 1 -4
BITMAP
ffff80
ffff80
c0c180
c0c180
c0c180
c0c180
c0c180
80c180
00c000
00c000
00c000
00c000
00c000
00c000
00c000
00c000
00c000
0ffc00
0ffc00
00e000
00f000
003000
07f000
01e000
ENDCHAR
STARTCHAR germandbls
ENCODING 223
SWIDTH 597 0
DWIDTH 20 0
BBX 15 20 2 1
BITMAP
07e0
0ff0
1838
3018
3018
3018
3030
33c0
33f0
3078
301c
300c
3006
3006
3006
3006
3006
320c
f3f8
f1f0
ENDCHAR
STARTCHAR racute
ENCODING 224
SWIDTH 597 0
DWIDTH 20 0
BBX 17 20 2 1
BITMAP
00c000
018000
030000
060000
000000
000000
7c3f00
7cff00
0fc000
0f0000
0e0000
0c0000
0c0000
0c0000
0c0000
0c0000
0c0000
0c0000
fff000
fff000
ENDCHAR
STARTCHAR aacute
ENCODING 225
SWIDTH 597 0
DWIDTH 20 0
BBX 16 20 2 1
BITMAP
00c0
0180
0300
0600
0000
0000
0fe0
7ff0
0018
0018
0018
0ff8
3ff8
7018
c018
c018
c038
e0f8
7fdf
1f1f
ENDCHAR
STARTCHAR acircumflex
ENCODING 226
SWIDTH 597 0
DWIDTH 20 0
BBX 16 20 2 1
BITMAP
0780
0fc0
1ce0
0000
0000
0000
0fe0
7ff0
0018
0018
0018
0ff8
3ff8
7018
c018
c018
c038
e0f8
7fdf
1f1f
ENDCHAR
STARTCHAR abreve
ENCODING 227
SWIDTH 597 0
DWIDTH 20 0
BBX 16 20 2 1
BITMAP
3010
1ff8
07f0
0040
0000
0000
0fe0
7ff0
0018
0018
0018
0ff8
3ff8
7018
c018
c018
c038
e0f8
7fdf
1f1f
ENDCHAR
STARTCHAR adieresis
ENCODING 228
SWIDTH 597 0
DWIDTH 20 0
BBX 16 20 2 1
BITMAP
0cc0
0cc0
0cc0
0cc0
0000
0000
0fe0
7ff0
0018
0018
0018
0ff8
3ff8
7018
c018
c018
c038
e0f8
7fdf
1f1f
ENDCHAR
STARTCHAR lacute
ENCODING 229
SWIDTH 597 0
DWIDTH 20 0
BBX 13 25 3 1
BITMAP
0180
0300
0600
0c00
0000
7f00
7f00
0300
0300
0300
0300
0300
0300
0300
0300
0300
0300
0300
0300
0300
0300
0300
0300
fff8
fff8
ENDCHAR
STARTCHAR cacute
ENCODING 230
SWIDTH 597 0
DWIDTH 20 0
BBX 16 20 2 1
BITMAP
0060
00c0
0180
0300
0000
0000
07f4
1ffe
380e
6006
e006
c000
c000
c000
c000
6000
7003
380f
1ffc
07f0
ENDCHAR
STARTCHAR ccedilla
ENCODING 231
SWIDTH 597 0
DWIDTH 20 0
BBX 16 19 2 -4
BITMAP
07e2
1ffe
3806
7006
e006
c000
c000
c000
c000
e000
7003
380f
1ffc
07f0
0180
01c0
00c0
01c0
0180
ENDCHAR
STARTCHAR ccaron
ENCODING 232
SWIDTH 597 0
DWIDTH 20 0
BBX 16 20 2 1
BITMAP
0e30
07e0
01c0
0000
0000
0000
07f4
1ffe
380e
6006
e006
c000
c000
c000
c000
6000
7003
380f
1ffc
07f0
ENDCHAR
STARTCHAR eacute
ENCODING 233
SWIDTH 597 0
DWIDTH 20 0
BBX 16 20 2 1
BITMAP
00c0
0180
0300
0600
0000
0000
07f0
1ff8
381e
7006
6007
c003
ffff
ffff
c000
e000
6000
7807
1fff
07f8
ENDCHAR
STARTCHAR eogonek
ENCODING 234
SWIDTH 597 0
DWIDTH 20 0
BBX 16 18 2 -3
BITMAP
07e0
1ff8
381c
600e
6007
c003
ffff
ffff
c000
e000
6000
7807
3fff
0ff8
01c0
0190
01e0
00e0
ENDCHAR
STARTCHAR edieresis
ENCODING 235
SWIDTH 597 0
DWIDTH 20 0
BBX 16 20 2 1
BITMAP
0660
0660
0660
0660
0000
0000
07f0
1ff8
381e
7006
6007
c003
ffff
ffff
c000
e000
6000
7807
1fff
07f8
ENDCHAR
STARTCHAR ecaron
ENCODING 236
SWIDTH 597 0
DWIDTH 20 0
BBX 16 20 2 1
BITMAP
0e30
07e0
01c0
0000
0000
0000
07f0
1ff8
381e
7006
6007
c003
ffff
ffff
c000
e000
6000
7807
1fff
07f8
ENDCHAR
STARTCHAR iacute
ENCODING 237
SWIDTH 597 0
DWIDTH 20 0
BBX 13 20 3 1
BITMAP
0180
0300
0600
0c00
0000
0000
7f00
7f00
0300
0300
0300
0300
0300
0300
0300
0300
0300
0300
fff8
fff8
ENDCHAR
STARTCHAR icircumflex
ENCODING 238
SWIDTH 597 0
DWIDTH 20 0
BBX 13 20 3 1
BITMAP
0780
0fc0
1ce0
0000
0000
0000
7f00
7f00
0300
0300
0300
0300
0300
0300
0300
0300
0300
0300
fff8
fff8
ENDCHAR
STARTCHAR dcaron
ENCODING 239
SWIDTH 597 0
DWIDTH 20 0
BBX 20 20 2 1
BITMAP
000660
0186c0
000780
000700
000600
000600
0fc600
1ff600
383e00
601e00
e00e00
c00e00
c00600
c00600
c00e00
e00e00
601e00
383e00
1ff780
0fc780
ENDCHAR
STARTCHAR dbar
ENCODING 240
SWIDTH 597 0
DWIDTH 20 0
BBX 17 20 2 1
BITMAP
000600
018600
000600
07ff80
07ff80
000600
0fc600
1ff600
383e00
601e00
e00e00
c00e00
c00600
c00600
c00e00
e00e00
601e00
383e00
1ff780
0fc780
ENDCHAR
STARTCHAR nacute
ENCODING 241
SWIDTH 597 0
DWIDTH 20 0
BBX 18 20 1 1
BITMAP
006000
00c000
018000
030000
000000
000000
f9f800
fffc00
1e0e00
180600
180600
180600
180600
180600
180600
180600
180600
180600
fe1fc0
fe1fc0
ENDCHAR
STARTCHAR ncaron
ENCODING 242
SWIDTH 597 0
DWIDTH 20 0
BBX 18 20 1 1
BITMAP
071800
03f000
00e000
000000
000000
000000
f9f800
fffc00
1e0e00
180600
180600
180600
180600
180600
180600
180600
180600
180600
fe1fc0
fe1fc0
ENDCHAR
STARTCHAR oacute
ENCODING 243
SWIDTH 597 0
DWIDTH 20 0
BBX 16 20 2 1
BITMAP
00c0
0180
0300
0600
0000
0000
0fe0
3ff8
781c
6006
c003
c003
c003
c003
c003
e007
6006
381c
1ff8
07e0
ENDCHAR
STARTCHAR ocircumflex
ENCODING 244
SWIDTH 597 0
DWIDTH 20 0
BBX 16 20 2 1
BITMAP
03c0
07e0
0e70
0000
0000
0000
0fe0
3ff8
781c
6006
c003
c003
c003
c003
c003
e007
6006
381c
1ff8
07e0
ENDCHAR
STARTCHAR ohungarumlaut
ENCODING 245
SWIDTH 597 0
DWIDTH 20 0
BBX 16 20 2 1
BITMAP
0198
0330
0660
0cc0
0000
0000
0fe0
3ff8
781c
6006
c003
c003
c003
c003
c003
e007
6006
381c
1ff8
07e0
ENDCHAR
STARTCHAR odieresis
ENCODING 246
SWIDTH 597 0
DWIDTH 20 0
BBX 16 20 2 1
BITMAP
0660
0660
0660
0660
0000
0000
0fe0
3ff8
781c
6006
c003
c003
c003
c003
c003
e007
6006
381c
1ff8
07e0
ENDCHAR
STARTCHAR divide
ENCODING 247
SWIDTH 597 0
DWIDTH 20 0
BBX 16 14 2 4
BITMAP
0380
0380
0380
0000
0000
0000
ffff
ffff
0000
0000
0000
0380
0380
0380
ENDCHAR
STARTCHAR rcaron
ENCODING 248
SWIDTH 597 0
DWIDTH 20 0
BBX 17 20 2 1
BITMAP
0e3000
07e000
01c000
000000
000000
000000
7c3f00
7cff00
0fc000
0f0000
0e0000
0c0000
0c0000
0c0000
0c0000
0c0000
0c0000
0c0000
fff000
fff000
ENDCHAR
STARTCHAR uring
ENCODING 249
SWIDTH 597 0
DWIDTH 20 0
BBX 17 22 1 1
BITMAP
00c000
01e000
033000
033000
03f000
01c000
000000
000000
f83e00
f83e00
180600
180600
180600
180600
180600
180600
180600
180600
180e00
1c1e00
0fff80
07e780
ENDCHAR
STARTCHAR uacute
ENCODING 250
SWIDTH 597 0
DWIDTH 20 0
BBX 17 20 1 1
BITMAP
006000
00c000
018000
030000
000000
000000
f83e00
f83e00
180600
180600
180600
180600
180600
180600
180600
180600
180e00
1c1e00
0fff80
07e780
ENDCHAR
STARTCHAR uhungarumlaut
ENCODING 251
SWIDTH 597 0
DWIDTH 20 0
BBX 17 20 1 1
BITMAP
00cc00
019800
033000
066000
000000
000000
f83e00
f83e00
180600
180600
180600
180600
180600
180600
180600
180600
180e00
1c1e00
0fff80
07e780
ENDCHAR
STARTCHAR udieresis
ENCODING 252
SWIDTH 597 0
DWIDTH 20 0
BBX 17 20 1 1
BITMAP
033000
033000
033000
033000
000000
000000
f83e00
f83e00
180600
180600
180600
180600
180600
180600
180600
180600
180e00
1c1e00
0fff80
07e780
ENDCHAR
STARTCHAR yacute
ENCODING 253
SWIDTH 597 0
DWIDTH 20 0
BBX 18 25 1 -4
BITMAP
006000
00c000
018000
030000
000000
000000
fc0fc0
fc0fc0
300300
180600
180600
0c0c00
0c0800
061800
061000
033000
016000
01e000
00c000
008000
018000
010000
030000
7fc000
7fc000
ENDCHAR
STARTCHAR tcedilla
ENCODING 254
SWIDTH 597 0
DWIDTH 20 0
BBX 15 24 3 -4
BITMAP
1800
1800
1800
1800
1800
fff0
fff0
1800
1800
1800
1800
1800
1800
1800
1800
1800
1c04
0ffe
07f0
01c0
01e0
0060
0fe0
03c0
ENDCHAR
STARTCHAR dotaccent
ENCODING 255
SWIDTH 597 0
DWIDTH 20 0
BBX 2 4 9 17
BITMAP
c0
c0
c0
c0
ENDCHAR
ENDFONT
